<svg width="17" height="17" viewBox="0 0 17 17" fill="none" xmlns="http://www.w3.org/2000/svg">
<path d="M15.8938 1.74833C15.6227 1.4633 15.2974 1.23539 14.9369 1.07802C14.5764 0.920651 14.1881 0.837011 13.7948 0.832024C13.4015 0.827037 13.0111 0.900805 12.6468 1.04898C12.2824 1.19716 11.9514 1.41675 11.6732 1.69482L2.38262 10.9854C2.05789 11.31 1.83239 11.7204 1.73253 12.1686L0.863435 16.083C0.8453 16.1644 0.847977 16.249 0.871218 16.329C0.894459 16.409 0.937513 16.4819 0.996396 16.5409C1.05528 16.5999 1.12809 16.6431 1.20809 16.6664C1.28809 16.6898 1.37269 16.6926 1.45407 16.6746L5.34569 15.8095C5.80891 15.7064 6.23313 15.4733 6.56857 15.1376L15.8423 5.86392C16.3858 5.3201 16.6954 4.58545 16.7051 3.81661C16.7147 3.04777 16.4236 2.30559 15.8938 1.74833ZM12.3738 2.39545C12.5551 2.21157 12.7709 2.06537 13.0089 1.96528C13.2469 1.86519 13.5024 1.81318 13.7606 1.81225C14.0188 1.81133 14.2747 1.8615 14.5134 1.95988C14.7521 2.05827 14.969 2.20291 15.1516 2.38549C15.3342 2.56807 15.4788 2.78497 15.5772 3.0237C15.6756 3.26243 15.7258 3.51826 15.7248 3.77646C15.7239 4.03467 15.6719 4.29014 15.5718 4.52815C15.4717 4.76617 15.3255 4.98202 15.1416 5.16329L14.4767 5.82824L11.7088 3.0614L12.3738 2.39545ZM11.0082 3.76302L13.776 6.52987L5.86794 14.438C5.66573 14.6405 5.40996 14.7811 5.13064 14.8433L1.99911 15.539L2.70073 12.3846C2.7592 12.12 2.89199 11.8782 3.08326 11.687L11.0082 3.76302Z" fill="black"/>
</svg>
