<svg width="17" height="17" viewBox="0 0 17 17" fill="none" xmlns="http://www.w3.org/2000/svg">
<path d="M15.8938 1.7483C15.6227 1.46327 15.2974 1.23536 14.9369 1.07799C14.5764 0.920621 14.1881 0.83698 13.7948 0.831994C13.4015 0.827007 13.0111 0.900774 12.6468 1.04895C12.2824 1.19713 11.9514 1.41672 11.6732 1.69479L2.38262 10.9853C2.05789 11.31 1.83239 11.7204 1.73253 12.1686L0.863435 16.083C0.8453 16.1643 0.847977 16.2489 0.871218 16.329C0.894459 16.409 0.937513 16.4819 0.996396 16.5409C1.05528 16.5999 1.12809 16.643 1.20809 16.6664C1.28809 16.6898 1.37269 16.6926 1.45407 16.6746L5.34569 15.8095C5.80891 15.7064 6.23313 15.4733 6.56857 15.1376L15.8423 5.86389C16.3858 5.32007 16.6954 4.58542 16.7051 3.81658C16.7147 3.04774 16.4236 2.30556 15.8938 1.7483ZM12.3738 2.39542C12.5551 2.21154 12.7709 2.06534 13.0089 1.96525C13.2469 1.86516 13.5024 1.81315 13.7606 1.81222C14.0188 1.8113 14.2747 1.86147 14.5134 1.95985C14.7521 2.05824 14.969 2.20288 15.1516 2.38546C15.3342 2.56804 15.4788 2.78494 15.5772 3.02367C15.6756 3.2624 15.7258 3.51823 15.7248 3.77643C15.7239 4.03464 15.6719 4.29011 15.5718 4.52812C15.4717 4.76614 15.3255 4.98199 15.1416 5.16326L14.4767 5.82821L11.7088 3.06137L12.3738 2.39542ZM11.0082 3.76299L13.776 6.52984L5.86794 14.4379C5.66573 14.6404 5.40996 14.781 5.13064 14.8433L1.99911 15.5389L2.70073 12.3846C2.7592 12.12 2.89199 11.8782 3.08326 11.687L11.0082 3.76299Z" fill="#EFEFEF"/>
</svg>
