<svg width="13" height="15" viewBox="0 0 13 15" fill="none" xmlns="http://www.w3.org/2000/svg">
<path d="M12.3824 2.76912H9.32694V2.00527C9.32694 1.66762 9.19282 1.34381 8.95406 1.10506C8.71531 0.866307 8.3915 0.732178 8.05385 0.732178H5.50767C5.17002 0.732178 4.84621 0.866307 4.60746 1.10506C4.36871 1.34381 4.23458 1.66762 4.23458 2.00527V2.76912H1.17916C1.0441 2.76912 0.914574 2.82278 0.819074 2.91828C0.723574 3.01378 0.669922 3.1433 0.669922 3.27836C0.669922 3.41342 0.723574 3.54295 0.819074 3.63845C0.914574 3.73395 1.0441 3.7876 1.17916 3.7876H1.72022L2.32494 13.4924C2.37014 14.3469 3.02514 14.9908 3.85265 14.9908H9.70887C10.5405 14.9908 11.1825 14.3613 11.2366 13.4949L11.8413 3.7876H12.3824C12.5174 3.7876 12.6469 3.73395 12.7424 3.63845C12.8379 3.54295 12.8916 3.41342 12.8916 3.27836C12.8916 3.1433 12.8379 3.01378 12.7424 2.91828C12.6469 2.82278 12.5174 2.76912 12.3824 2.76912ZM4.76196 12.9539H4.74381C4.61184 12.9539 4.48499 12.9028 4.39 12.8112C4.295 12.7196 4.23928 12.5947 4.23458 12.4628L3.97996 5.33345C3.97515 5.19839 4.02419 5.06695 4.11628 4.96805C4.20838 4.86915 4.336 4.81088 4.47105 4.80607C4.60611 4.80126 4.73755 4.8503 4.83645 4.94239C4.93536 5.03449 4.99362 5.16211 4.99843 5.29717L5.25305 12.4265C5.25548 12.4934 5.24469 12.5601 5.22132 12.6228C5.19794 12.6855 5.16244 12.743 5.11683 12.792C5.07122 12.8409 5.0164 12.8805 4.9555 12.9082C4.89461 12.936 4.82884 12.9515 4.76196 12.9539ZM7.29 12.4446C7.29 12.5797 7.23635 12.7092 7.14085 12.8047C7.04535 12.9002 6.91582 12.9539 6.78076 12.9539C6.6457 12.9539 6.51618 12.9002 6.42068 12.8047C6.32518 12.7092 6.27152 12.5797 6.27152 12.4446V5.31531C6.27152 5.18025 6.32518 5.05072 6.42068 4.95522C6.51618 4.85972 6.6457 4.80607 6.78076 4.80607C6.91582 4.80607 7.04535 4.85972 7.14085 4.95522C7.23635 5.05072 7.29 5.18025 7.29 5.31531V12.4446ZM8.30847 2.76912H5.25305V2.00527C5.25267 1.97173 5.25899 1.93844 5.27165 1.90738C5.28431 1.87631 5.30305 1.84809 5.32677 1.82437C5.35049 1.80065 5.37871 1.78191 5.40978 1.76925C5.44084 1.75659 5.47413 1.75027 5.50767 1.75065H8.05385C8.0874 1.75027 8.12068 1.75659 8.15174 1.76925C8.18281 1.78191 8.21103 1.80065 8.23475 1.82437C8.25847 1.84809 8.27721 1.87631 8.28987 1.90738C8.30253 1.93844 8.30886 1.97173 8.30847 2.00527V2.76912ZM9.32694 12.4628C9.32224 12.5947 9.26652 12.7196 9.17153 12.8112C9.07653 12.9028 8.94968 12.9539 8.81771 12.9539H8.79925C8.73239 12.9515 8.66665 12.9359 8.6058 12.9081C8.54494 12.8804 8.49016 12.8408 8.44458 12.7919C8.39901 12.7429 8.36353 12.6854 8.34017 12.6227C8.31682 12.56 8.30605 12.4933 8.30847 12.4265L8.56309 5.29717C8.56547 5.23029 8.581 5.16454 8.6088 5.10367C8.63659 5.0428 8.6761 4.988 8.72507 4.94239C8.77404 4.89679 8.83152 4.86128 8.89421 4.83789C8.95691 4.8145 9.02359 4.80369 9.09047 4.80607C9.15734 4.80845 9.22309 4.82398 9.28396 4.85178C9.34483 4.87957 9.39964 4.91908 9.44524 4.96805C9.49084 5.01702 9.52635 5.0745 9.54974 5.13719C9.57313 5.19989 9.58395 5.26658 9.58156 5.33345L9.32694 12.4628Z" fill="#EFEFEF"/>
</svg>
